# xmcd CD database file
#
# Track frame offsets:
#	150
#	16285
#	32198
#	52828
#	69623
#	95849
#	121559
#	137954
#	168351
#	174817
#
# Disc length: 2475 seconds
#
# Revision: 0
# Processed by: cddbd v1.4PL0 Copyright (c) Steve Scherf et al.
# Submitted via: CDex 1.50
#
DISCID=7c09a90a
DTITLE=Difusa Trio - Corchea sudor y alma
DYEAR=1900
DGENRE=Jazz
TTITLE0=Libertango
TTITLE1=Blue Monk
TTITLE2=Garota di Ipanema
TTITLE3=Adios Nonino
TTITLE4=All Blues
TTITLE5=Grito Santiagueno
TTITLE6=Mr. PC
TTITLE7=Fragilidad
TTITLE8=La ultima curda
TTITLE9=Kalimbeando
EXTD=
EXTT0=
EXTT1=
EXTT2=
EXTT3=
EXTT4=
EXTT5=
EXTT6=
EXTT7=
EXTT8=
EXTT9=
PLAYORDER=
